<svg version="1.1" id="svg" xmlns="http://www.w3.org/2000/svg" xmlns:xlink="http://www.w3.org/1999/xlink" width="127" height="23" viewBox="0, 0, 400,136">
<style type="text/css">
	.st0{fill:#FFFFFF;}
	.st1{fill:#F8BB37;}
</style>
<g>
	<g>
		<g>
			<path class="st0" d="M258.7,19.5c5.4,0,9.6,3.8,9.6,8.9s-4.2,8.9-9.6,8.9c-5.4,0-9.4-4.2-9.4-8.9S253.2,19.5,258.7,19.5z"/>
		</g>
		<g>
			<rect x="251.4" y="47.7" class="st0" width="14.8" height="59.3"/>
		</g>
		<g>
			<path class="st0" d="M276.3,58.8V47.7h12.2V30.5h14.8v17.2h16.3v11.1h-16.3v25.9c0,5.9,1.7,9.6,8.3,9.6c2.6,0,6.2-0.5,8-1.9v12.5
				c-3.1,1.5-8.3,2-11.7,2c-15.7,0-19.4-7-19.4-21V58.8H276.3z"/>
		</g>
		<g>
			<path class="st0" d="M434.8,97.4h-0.4c-4.2,6.7-11.1,9.6-19,9.6c-11,0-21.6-6.1-21.6-17.8c0-19.3,22.5-20.6,37.3-20.6h3.7V67
				c0-7.3-5.7-11.1-13.6-11.1c-6.2,0-11.9,2.5-15.8,6.2l-7.8-7.8c6.5-6.7,15.8-9.5,25.2-9.5c25.3,0,25.3,18.3,25.3,26.7V107h-13.3
				V97.4z M434,79h-3.1c-8.2,0-22.2,0.6-22.2,9.1c0,5.4,5.6,7.8,10.4,7.8c10.1,0,15-5.3,15-13.6V79z"/>
		</g>
		<g>
			<path class="st0" d="M464.1,47.7H479v9.4h0.2c3.2-6.8,9.8-10.9,17.5-10.9c1.9,0,3.6,0.4,5.3,0.9v14.3c-2.5-0.6-4.8-1.1-7.2-1.1
				c-14,0-15.9,11.7-15.9,15V107h-14.8V47.7z"/>
		</g>
		<g>
			<path class="st0" d="M556.9,96.6h-0.2c-4.3,7.2-12.1,10.4-20.4,10.4C518,107,507,93.4,507,75.9s11.7-31.1,28.7-31.1
				c11.1,0,17.1,5.2,20.1,9l0.4,1.5V19.5H571V107h-14.1V96.6z M539.3,93.7c10.9,0,17.4-8.5,17.4-17.8s-6.6-17.8-17.4-17.8
				c-10.9,0-17.4,8.5-17.4,17.8S528.4,93.7,539.3,93.7z"/>
		</g>
		<g>
			<path class="st0" d="M218.1,60.9v-0.2c9-2.7,15.2-9.3,15.2-19.2c0-15.9-13.6-22-26.8-22h-34.1V107h31.5c16.6,0,33.1-5.9,33.1-25
				C237,70.8,229.1,62.2,218.1,60.9z M202.3,93.7H188V77.4v-8.9V55.1v-9.7V32.9h12.9c11.7,0,16.9,3.7,16.9,11.2
				c0,6.5-5.2,11-15.6,11h-8.5v13.3h9.2c12.6,0,18.5,3.2,18.5,12.4C221.5,92.3,210.4,93.7,202.3,93.7z"/>
		</g>
		<polygon class="st1" points="345.2,54 365.1,19.5 325.3,19.5 		"/>
		<g>
			<polygon class="st0" points="383.9,19.5 354,67.5 354,69.6 354,107 369.6,107 369.6,69.6 402.5,19.5 			"/>
		</g>
	</g>
	<g>
		<g>
			<polygon class="st0" points="40,1.7 1.7,1.7 49.5,84.5 68.7,51.3 			"/>
		</g>
		<polygon class="st1" points="105.6,1.7 105.5,1.9 100.3,11 119.4,44.2 144,1.7 		"/>
		<polygon class="st1" points="57.8,18.1 77,51.3 72.8,58.5 53.6,91.7 68.7,117.7 72.8,124.9 92,91.7 92,91.7 115.3,51.3 
			115.3,51.3 96.1,18.1 		"/>
	</g>
</g>
</svg>
